<?xml version="1.0" encoding="UTF-8" standalone="no"?>
<svg
   width="28in"
   height="30in"
   viewBox="0 0 2016 2160"
   version="1.1"
   id="svg10014"
   sodipodi:docname="altivo.svg"
   inkscape:version="1.2.2 (b0a84865, 2022-12-01)"
   xmlns:inkscape="http://www.inkscape.org/namespaces/inkscape"
   xmlns:sodipodi="http://sodipodi.sourceforge.net/DTD/sodipodi-0.dtd"
   xmlns="http://www.w3.org/2000/svg"
   xmlns:svg="http://www.w3.org/2000/svg">
  <defs
     id="defs10018" />
  <sodipodi:namedview
     id="namedview10016"
     pagecolor="#ffffff"
     bordercolor="#000000"
     borderopacity="0.25"
     inkscape:showpageshadow="2"
     inkscape:pageopacity="0.0"
     inkscape:pagecheckerboard="0"
     inkscape:deskcolor="#d1d1d1"
     inkscape:document-units="in"
     showgrid="false"
     inkscape:zoom="0.20015609"
     inkscape:cx="1069.1656"
     inkscape:cy="1406.4024"
     inkscape:window-width="1440"
     inkscape:window-height="847"
     inkscape:window-x="0"
     inkscape:window-y="25"
     inkscape:window-maximized="0"
     inkscape:current-layer="svg10014" />
  <path
     id="head"
     fill="none"
     stroke="black"
     stroke-width="1"
     d="M 1161.23,503.14            C 1161.23,503.14 1222.00,776.00 1222.00,776.00              1222.00,776.00 1228.50,1064.00 1228.50,1064.00              1228.50,1064.00 1174.00,1388.00 1174.00,1388.00              1174.00,1388.00 1007.13,1635.99 1007.13,1635.99              1007.13,1635.99 1046.00,2052.00 1046.00,2052.00              1046.00,2052.00 1916.00,1186.00 1916.00,1186.00              1916.00,1186.00 1177.00,424.00 1177.00,424.00              1177.00,424.00 1161.23,503.14 1161.23,503.14 Z            M 1002.00,1628.00M 751.21,943.90            C 751.21,943.90 804.25,882.02 804.25,882.02              804.25,882.02 919.35,870.04 919.35,870.04              919.35,870.04 1011.34,910.01 1011.34,910.01              1011.34,910.01 1015.50,900.00 1015.50,900.00              1015.50,900.00 924.01,858.67 924.01,858.67              924.01,858.67 797.58,869.04 797.58,869.04              797.58,869.04 734.59,943.26 734.59,943.26              734.59,943.26 751.21,943.90 751.21,943.90 Z            M 1112.50,209.75            C 1112.50,209.75 1153.33,298.26 1153.33,298.26              1153.33,298.26 1132.56,397.50 1132.56,397.50              1132.56,397.50 1030.10,414.00 1030.10,414.00              1030.10,414.00 1027.88,425.00 1027.88,425.00              1027.88,425.00 1142.98,406.00 1142.98,406.00              1142.98,406.00 1162.73,297.68 1162.73,297.68              1162.73,297.68 1117.67,200.51 1117.67,200.51              1117.67,200.51 1050.95,148.45 1050.95,148.45              1050.95,148.45 1041.97,156.97 1041.97,156.97              1041.97,156.97 1112.50,209.75 1112.50,209.75 Z            M 760.48,351.05            C 760.48,351.05 696.28,227.66 696.28,227.66              696.28,227.66 589.00,125.84 589.00,125.84              589.00,125.84 589.00,143.97 589.00,143.97              589.00,143.97 687.00,235.00 687.00,235.00              687.00,235.00 748.00,359.00 748.00,359.00              748.00,359.00 760.48,351.05 760.48,351.05 Z            M 749.11,1782.57            C 749.11,1782.57 622.00,1976.00 622.00,1976.00              622.00,1976.00 370.00,2100.00 370.00,2100.00              370.00,2100.00 218.00,2020.00 218.00,2020.00              218.00,2020.00 110.00,1804.00 110.00,1804.00              110.00,1804.00 199.04,1589.97 199.04,1589.97              199.04,1589.97 445.91,1580.40 445.91,1580.40              445.91,1580.40 624.93,1655.04 624.93,1655.04              624.93,1655.04 749.11,1782.57 749.11,1782.57 Z            M 1155.43,503.94            C 1155.43,503.94 1214.50,777.00 1214.50,777.00              1214.50,777.00 1221.50,1064.50 1221.50,1064.50              1221.50,1064.50 1209.03,1133.88 1209.03,1133.88              1209.03,1133.88 1075.00,1101.00 1075.00,1101.00              1075.00,1101.00 919.00,1182.00 919.00,1182.00              919.00,1182.00 817.00,1341.00 817.00,1341.00              817.00,1341.00 876.50,1627.63 876.50,1627.63              876.50,1627.63 754.29,1775.50 754.29,1775.50              754.29,1775.50 630.00,1647.50 630.00,1647.50              630.00,1647.50 447.00,1572.50 447.00,1572.50              447.00,1572.50 203.18,1580.60 203.18,1580.60              203.18,1580.60 442.00,1008.00 442.00,1008.00              442.00,1008.00 421.00,810.00 421.00,810.00              421.00,810.00 686.00,472.00 686.00,472.00              686.00,472.00 570.00,276.00 570.00,276.00              570.00,276.00 558.00,64.00 558.00,64.00              558.00,64.00 714.00,204.00 714.00,204.00              714.00,204.00 794.00,356.00 794.00,356.00              794.00,356.00 942.00,348.00 942.00,348.00              942.00,348.00 1026.00,64.00 1026.00,64.00              1026.00,64.00 1126.00,152.00 1126.00,152.00              1126.00,152.00 1190.00,316.00 1190.00,316.00              1190.00,316.00 1155.43,503.94 1155.43,503.94 Z            M 1207.81,1142.74            C 1207.81,1142.74 1166.50,1388.00 1166.50,1388.00              1166.50,1388.00 1002.00,1628.00 1002.00,1628.00              1002.00,1628.00 884.84,1627.03 884.84,1627.03              884.84,1627.03 827.00,1341.50 827.00,1341.50              827.00,1341.50 925.00,1187.00 925.00,1187.00              925.00,1187.00 1077.00,1110.00 1077.00,1110.00              1077.00,1110.00 1207.81,1142.74 1207.81,1142.74 Z"
     style="fill:#ffcc00" />
  <path
     id="hair"
     fill="none"
     stroke="black"
     stroke-width="1"
     d="M 1150.00,501.00            C 1150.00,501.00 1172.00,578.00 1172.00,578.00              1172.00,578.00 1381.00,807.00 1381.00,807.00              1381.00,807.00 1939.00,1374.00 1939.00,1374.00              1939.00,1374.00 1939.00,1089.00 1939.00,1089.00              1939.00,1089.00 1185.33,296.00 1185.33,296.00              1185.33,296.00 1150.00,501.00 1150.00,501.00 Z            M 799.00,345.00            C 799.00,345.00 619.00,429.00 619.00,429.00              619.00,429.00 472.00,612.00 472.00,612.00              472.00,612.00 424.00,750.00 424.00,750.00              424.00,750.00 379.00,1053.00 379.00,1053.00              379.00,1053.00 430.00,1005.00 430.00,1005.00              430.00,1005.00 488.09,817.84 488.09,817.84              488.09,817.84 536.67,661.33 536.67,661.33              536.67,661.33 684.67,478.00 684.67,478.00              684.67,478.00 853.00,429.00 853.00,429.00              853.00,429.00 889.00,567.00 889.00,567.00              889.00,567.00 1027.00,750.00 1027.00,750.00              1027.00,750.00 1078.00,1056.00 1078.00,1056.00              1078.00,1056.00 1120.00,1284.00 1120.00,1284.00              1120.00,1284.00 1186.50,1485.00 1186.50,1485.00              1186.50,1485.00 1171.00,1269.00 1171.00,1269.00              1171.00,1269.00 1126.00,885.00 1126.00,885.00              1126.00,885.00 1063.00,645.00 1063.00,645.00              1063.00,645.00 940.00,339.00 940.00,339.00              940.00,339.00 799.00,345.00 799.00,345.00 Z"
     style="fill:#fff6d5" />
  <path
     id="stripe"
     fill="none"
     stroke="black"
     stroke-width="1"
     d="M 132.00,1809.00            C 132.00,1809.00 197.00,1636.00 197.00,1636.00              197.00,1636.00 541.00,885.00 541.00,885.00              541.00,885.00 595.00,822.00 595.00,822.00              595.00,822.00 523.00,816.00 523.00,816.00              523.00,816.00 613.00,693.00 613.00,693.00              613.00,693.00 733.00,660.00 733.00,660.00              733.00,660.00 754.00,816.00 754.00,819.00              754.00,822.00 634.00,870.00 634.00,870.00              634.00,870.00 250.00,1686.00 250.00,1686.00              250.00,1686.00 289.00,1953.00 289.00,1953.00              289.00,1953.00 181.00,1923.00 181.00,1923.00              181.00,1923.00 132.00,1809.00 132.00,1809.00 Z"
     style="fill:#fff6d5" />
  <path
     id="eyes-nose"
     fill="none"
     stroke="black"
     stroke-width="1"
     d="M 643.00,1761.00            C 643.00,1761.00 665.33,1754.67 665.33,1754.67              665.33,1754.67 563.23,2005.72 563.23,2005.72              563.23,2005.72 513.19,2029.50 513.19,2029.50              513.19,2029.50 643.00,1761.00 643.00,1761.00 Z            M 386.00,1917.00            C 386.00,1917.00 323.00,1857.00 323.00,1857.00              323.00,1857.00 285.00,1874.00 285.00,1874.00              285.00,1874.00 295.00,1934.00 295.00,1934.00              295.00,1934.00 351.99,1979.99 351.99,1979.99              351.99,1979.99 386.00,1917.00 386.00,1917.00 Z            M 998.50,964.65            C 998.50,964.65 905.33,935.33 905.33,935.33              905.33,935.33 821.33,961.00 821.33,961.00              821.33,961.00 802.33,1014.67 802.33,1014.67              802.33,1014.67 836.00,1037.33 836.00,1037.33              836.00,1037.33 963.33,1038.00 963.33,1038.00              963.33,1038.00 998.50,964.65 998.50,964.65 Z            M 938.33,1022.00            C 938.33,1022.00 849.67,1005.00 849.67,1005.00              849.67,1005.00 895.33,955.67 895.33,955.67              895.33,955.67 984.13,971.93 984.13,971.93              984.13,971.93 938.33,1022.00 938.33,1022.00 Z"
     style="fill:#2b2200" />
</svg>
