<?xml version="1.0" encoding="UTF-8" standalone="no"?>
<!DOCTYPE svg PUBLIC "-//W3C//DTD SVG 20010904//EN"
              "http://www.w3.org/TR/2001/REC-SVG-20010904/DTD/svg10.dtd">

<svg xmlns="http://www.w3.org/2000/svg"
     width="28in" height="30in"
     viewBox="0 0 2016 2160">
  <path id="eyes-nose"
        fill="none" stroke="black" stroke-width="1"
        d="M 643.00,1761.00
           C 643.00,1761.00 665.33,1754.67 665.33,1754.67
             665.33,1754.67 563.23,2005.72 563.23,2005.72
             563.23,2005.72 513.19,2029.50 513.19,2029.50
             513.19,2029.50 643.00,1761.00 643.00,1761.00 Z
           M 386.00,1917.00
           C 386.00,1917.00 323.00,1857.00 323.00,1857.00
             323.00,1857.00 285.00,1874.00 285.00,1874.00
             285.00,1874.00 295.00,1934.00 295.00,1934.00
             295.00,1934.00 351.99,1979.99 351.99,1979.99
             351.99,1979.99 386.00,1917.00 386.00,1917.00 Z
           M 998.50,964.65
           C 998.50,964.65 905.33,935.33 905.33,935.33
             905.33,935.33 821.33,961.00 821.33,961.00
             821.33,961.00 802.33,1014.67 802.33,1014.67
             802.33,1014.67 836.00,1037.33 836.00,1037.33
             836.00,1037.33 963.33,1038.00 963.33,1038.00
             963.33,1038.00 998.50,964.65 998.50,964.65 Z
           M 938.33,1022.00
           C 938.33,1022.00 849.67,1005.00 849.67,1005.00
             849.67,1005.00 895.33,955.67 895.33,955.67
             895.33,955.67 984.13,971.93 984.13,971.93
             984.13,971.93 938.33,1022.00 938.33,1022.00 Z" />
</svg>
