<?xml version="1.0" encoding="UTF-8" standalone="no"?>
<!DOCTYPE svg PUBLIC "-//W3C//DTD SVG 20010904//EN"
              "http://www.w3.org/TR/2001/REC-SVG-20010904/DTD/svg10.dtd">

<svg xmlns="http://www.w3.org/2000/svg"
     width="28in" height="30in"
     viewBox="0 0 2016 2160">
  <path id="hair"
        fill="none" stroke="black" stroke-width="1"
        d="M 1150.00,501.00
           C 1150.00,501.00 1172.00,578.00 1172.00,578.00
             1172.00,578.00 1381.00,807.00 1381.00,807.00
             1381.00,807.00 1939.00,1374.00 1939.00,1374.00
             1939.00,1374.00 1939.00,1089.00 1939.00,1089.00
             1939.00,1089.00 1185.33,296.00 1185.33,296.00
             1185.33,296.00 1150.00,501.00 1150.00,501.00 Z
           M 799.00,345.00
           C 799.00,345.00 619.00,429.00 619.00,429.00
             619.00,429.00 472.00,612.00 472.00,612.00
             472.00,612.00 424.00,750.00 424.00,750.00
             424.00,750.00 379.00,1053.00 379.00,1053.00
             379.00,1053.00 430.00,1005.00 430.00,1005.00
             430.00,1005.00 488.09,817.84 488.09,817.84
             488.09,817.84 536.67,661.33 536.67,661.33
             536.67,661.33 684.67,478.00 684.67,478.00
             684.67,478.00 853.00,429.00 853.00,429.00
             853.00,429.00 889.00,567.00 889.00,567.00
             889.00,567.00 1027.00,750.00 1027.00,750.00
             1027.00,750.00 1078.00,1056.00 1078.00,1056.00
             1078.00,1056.00 1120.00,1284.00 1120.00,1284.00
             1120.00,1284.00 1186.50,1485.00 1186.50,1485.00
             1186.50,1485.00 1171.00,1269.00 1171.00,1269.00
             1171.00,1269.00 1126.00,885.00 1126.00,885.00
             1126.00,885.00 1063.00,645.00 1063.00,645.00
             1063.00,645.00 940.00,339.00 940.00,339.00
             940.00,339.00 799.00,345.00 799.00,345.00 Z" />
</svg>
