<?xml version="1.0" encoding="UTF-8" standalone="no"?>
<!DOCTYPE svg PUBLIC "-//W3C//DTD SVG 20010904//EN"
              "http://www.w3.org/TR/2001/REC-SVG-20010904/DTD/svg10.dtd">

<svg xmlns="http://www.w3.org/2000/svg"
     width="28in" height="30in"
     viewBox="0 0 2016 2160">
  <path id="head"
        fill="none" stroke="black" stroke-width="1"
        d="M 1161.23,503.14
           C 1161.23,503.14 1222.00,776.00 1222.00,776.00
             1222.00,776.00 1228.50,1064.00 1228.50,1064.00
             1228.50,1064.00 1174.00,1388.00 1174.00,1388.00
             1174.00,1388.00 1007.13,1635.99 1007.13,1635.99
             1007.13,1635.99 1046.00,2052.00 1046.00,2052.00
             1046.00,2052.00 1916.00,1186.00 1916.00,1186.00
             1916.00,1186.00 1177.00,424.00 1177.00,424.00
             1177.00,424.00 1161.23,503.14 1161.23,503.14 Z
           M 1002.00,1628.00M 751.21,943.90
           C 751.21,943.90 804.25,882.02 804.25,882.02
             804.25,882.02 919.35,870.04 919.35,870.04
             919.35,870.04 1011.34,910.01 1011.34,910.01
             1011.34,910.01 1015.50,900.00 1015.50,900.00
             1015.50,900.00 924.01,858.67 924.01,858.67
             924.01,858.67 797.58,869.04 797.58,869.04
             797.58,869.04 734.59,943.26 734.59,943.26
             734.59,943.26 751.21,943.90 751.21,943.90 Z
           M 1131.72,321.13
           C 1131.72,321.13 1116.36,468.54 1116.36,468.54
             1116.36,468.54 1028.31,439.39 1028.31,439.39
             1028.31,439.39 1027.88,425.00 1027.88,425.00
             1027.88,425.00 1105.98,451.71 1105.98,451.71
             1105.98,451.71 1119.53,321.94 1119.53,321.94
             1119.53,321.94 1037.00,148.33 1037.00,148.33
             1037.00,148.33 1046.50,136.50 1046.50,136.50
             1046.50,136.50 1131.72,321.13 1131.72,321.13 Z
           M 734.00,368.00
           C 734.00,368.00 675.33,246.67 675.33,246.67
             675.33,246.67 588.67,168.67 588.67,168.67
             588.67,168.67 589.00,143.97 589.00,143.97
             589.00,143.97 687.00,235.00 687.00,235.00
             687.00,235.00 748.00,359.00 748.00,359.00
             748.00,359.00 734.00,368.00 734.00,368.00 Z
           M 749.11,1782.57
           C 749.11,1782.57 622.00,1976.00 622.00,1976.00
             622.00,1976.00 370.00,2100.00 370.00,2100.00
             370.00,2100.00 218.00,2020.00 218.00,2020.00
             218.00,2020.00 110.00,1804.00 110.00,1804.00
             110.00,1804.00 199.04,1589.97 199.04,1589.97
             199.04,1589.97 445.91,1580.40 445.91,1580.40
             445.91,1580.40 624.93,1655.04 624.93,1655.04
             624.93,1655.04 749.11,1782.57 749.11,1782.57 Z
           M 1155.43,503.94
           C 1155.43,503.94 1214.50,777.00 1214.50,777.00
             1214.50,777.00 1221.50,1064.50 1221.50,1064.50
             1221.50,1064.50 1209.03,1133.88 1209.03,1133.88
             1209.03,1133.88 1075.00,1101.00 1075.00,1101.00
             1075.00,1101.00 919.00,1182.00 919.00,1182.00
             919.00,1182.00 817.00,1341.00 817.00,1341.00
             817.00,1341.00 876.50,1627.63 876.50,1627.63
             876.50,1627.63 754.29,1775.50 754.29,1775.50
             754.29,1775.50 630.00,1647.50 630.00,1647.50
             630.00,1647.50 447.00,1572.50 447.00,1572.50
             447.00,1572.50 203.18,1580.60 203.18,1580.60
             203.18,1580.60 442.00,1008.00 442.00,1008.00
             442.00,1008.00 421.00,810.00 421.00,810.00
             421.00,810.00 686.00,472.00 686.00,472.00
             686.00,472.00 570.00,276.00 570.00,276.00
             570.00,276.00 558.00,64.00 558.00,64.00
             558.00,64.00 714.00,204.00 714.00,204.00
             714.00,204.00 794.00,356.00 794.00,356.00
             794.00,356.00 942.00,348.00 942.00,348.00
             942.00,348.00 1026.00,64.00 1026.00,64.00
             1026.00,64.00 1126.00,152.00 1126.00,152.00
             1126.00,152.00 1190.00,316.00 1190.00,316.00
             1190.00,316.00 1155.43,503.94 1155.43,503.94 Z
           M 1207.81,1142.74
           C 1207.81,1142.74 1166.50,1388.00 1166.50,1388.00
             1166.50,1388.00 1002.00,1628.00 1002.00,1628.00
             1002.00,1628.00 884.84,1627.03 884.84,1627.03
             884.84,1627.03 827.00,1341.50 827.00,1341.50
             827.00,1341.50 925.00,1187.00 925.00,1187.00
             925.00,1187.00 1077.00,1110.00 1077.00,1110.00
             1077.00,1110.00 1207.81,1142.74 1207.81,1142.74 Z" />
</svg>
