<?xml version="1.0" encoding="UTF-8" standalone="no"?>
<!DOCTYPE svg PUBLIC "-//W3C//DTD SVG 20010904//EN"
              "http://www.w3.org/TR/2001/REC-SVG-20010904/DTD/svg10.dtd">

<svg xmlns="http://www.w3.org/2000/svg"
     width="28in" height="30in"
     viewBox="0 0 2016 2160">
  <path id="stripe"
        fill="none" stroke="black" stroke-width="1"
        d="M 132.00,1809.00
           C 132.00,1809.00 197.00,1636.00 197.00,1636.00
             197.00,1636.00 541.00,885.00 541.00,885.00
             541.00,885.00 595.00,822.00 595.00,822.00
             595.00,822.00 523.00,816.00 523.00,816.00
             523.00,816.00 613.00,693.00 613.00,693.00
             613.00,693.00 733.00,660.00 733.00,660.00
             733.00,660.00 754.00,816.00 754.00,819.00
             754.00,822.00 634.00,870.00 634.00,870.00
             634.00,870.00 250.00,1686.00 250.00,1686.00
             250.00,1686.00 289.00,1953.00 289.00,1953.00
             289.00,1953.00 181.00,1923.00 181.00,1923.00
             181.00,1923.00 132.00,1809.00 132.00,1809.00 Z" />
</svg>
